<svg width="58" height="58" viewBox="0 0 58 58" fill="none" xmlns="http://www.w3.org/2000/svg">
<mask id="mask0_313_3872" style="mask-type:alpha" maskUnits="userSpaceOnUse" x="0" y="0" width="58" height="58">
<path d="M28.9189 0.345703L57.4189 28.8457L28.9189 57.3457L0.418945 28.8457L28.9189 0.345703Z" fill="#461250"/>
</mask>
<g mask="url(#mask0_313_3872)">
<path d="M28.9189 0.345703L57.4189 28.8457L28.9189 57.3457L0.418945 28.8457L28.9189 0.345703Z" fill="#2F0D35"/>
<path d="M28.9189 -2.58789L60.3525 28.8457H28.9189V-2.58789Z" fill="#8A3299"/>
<path d="M59.9004 28.8457L28.9189 59.8271L28.9189 28.8457L59.9004 28.8457Z" fill="#2F0D35"/>
<path d="M28.9189 28.8457L0.418944 57.3457L0.418945 28.8457L28.9189 28.8457Z" fill="#D9D9D9"/>
<path d="M28.9189 60.3203L-2.55566 28.8457L28.9189 28.8457L28.9189 60.3203Z" fill="#25082B"/>
<path d="M-2.31543 28.8457L28.9189 -2.38867L28.9189 28.8457L-2.31543 28.8457Z" fill="#A05DAC"/>
<path d="M28.9189 12.3291L45.4355 28.8457L28.9189 45.3623L12.4023 28.8457L28.9189 12.3291Z" fill="#9416AB"/>
</g>
</svg>
