<svg width="16" height="16" viewBox="0 0 16 16" fill="none" xmlns="http://www.w3.org/2000/svg">
<path fill-rule="evenodd" clip-rule="evenodd" d="M15 8C15 11.866 11.866 15 8 15C4.13401 15 1 11.866 1 8C1 4.13401 4.13401 1 8 1C11.866 1 15 4.13401 15 8ZM16 8C16 12.4183 12.4183 16 8 16C3.58172 16 0 12.4183 0 8C0 3.58172 3.58172 0 8 0C12.4183 0 16 3.58172 16 8ZM8.94431 11.7897C8.4101 11.7897 8.41656 11.3505 8.45488 11.0384L9.07372 5.99825H8.94314C8.22157 6.46065 7.42014 6.7034 6.68321 6.80744L6.65057 7.07332C7.05419 7.07332 7.19536 7.37387 7.13574 7.85939L6.74542 11.0384C6.70709 11.3505 6.5938 11.7897 6.07146 11.7897L6.03882 12.0556H8.91166L8.94431 11.7897ZM8.51371 3.50132C8.00324 3.50132 7.53807 3.90592 7.47846 4.39143C7.41742 4.8885 7.78324 5.2931 8.2937 5.2931C8.7923 5.2931 9.25747 4.8885 9.3185 4.39143C9.37812 3.90592 9.0123 3.50132 8.51371 3.50132Z" fill="#808080"/>
</svg>
