<svg width="26" height="26" viewBox="0 0 26 26" fill="none" xmlns="http://www.w3.org/2000/svg">
<path d="M21.1402 7.95437C21.1402 12.3475 17.4957 15.9087 13 15.9087C8.5043 15.9087 4.85981 12.3475 4.85981 7.95437C4.85981 3.56129 8.5043 0 13 0C17.4957 0 21.1402 3.56129 21.1402 7.95437Z" fill="white"/>
<path d="M12.9393 18.0458C18.2737 18.0458 22.5981 13.8466 22.5981 8.66673C22.5981 7.13029 22.2177 5.68014 21.5432 4.40027C21.4151 4.15713 21.73 3.87991 21.9333 4.06788C24.4376 6.38341 26 9.66179 26 13.2967C26 20.3126 20.1797 26 13 26C5.8203 26 0 20.3126 0 13.2967C0 9.78075 1.46179 6.59839 3.82389 4.29831C4.02211 4.10529 4.34433 4.37441 4.22284 4.62074C3.61871 5.84572 3.28037 7.21786 3.28037 8.66673C3.28037 13.8466 7.6048 18.0458 12.9393 18.0458Z" fill="white"/>
</svg>
