<svg width="51" height="47" viewBox="0 0 51 47" fill="none" xmlns="http://www.w3.org/2000/svg">
<mask id="mask0_313_3951" style="mask-type:alpha" maskUnits="userSpaceOnUse" x="1" y="0" width="49" height="47">
<path d="M25.4106 0L49.6626 17.6201L40.3992 46.1299H10.4221L1.1587 17.6201L25.4106 0Z" fill="#D47B28"/>
</mask>
<g mask="url(#mask0_313_3951)">
<path d="M25.4106 0L49.6626 17.6201L40.3992 46.1299H10.4221L1.1587 17.6201L25.4106 0Z" fill="#633A13"/>
<path d="M25.4106 25.5V0L49.6646 17.6211L25.4106 25.5Z" fill="#EBBA3D"/>
<path d="M25.4106 25.5001L1.15869 17.6201L25.4122 -0.00149995L25.4106 25.5001Z" fill="#FAD577"/>
<path d="M25.4109 25.5L10.4224 46.1299L1.15796 17.618L25.4109 25.5Z" fill="#AA7D08"/>
<path d="M25.4104 25.5L40.3989 46.1299L10.4197 46.1302L25.4104 25.5Z" fill="#8D6C17"/>
<path d="M25.4107 25.5L49.6626 17.6201L40.3988 46.1322L25.4107 25.5Z" fill="#9E7D28"/>
<path d="M25.4106 9.65723L40.478 20.6043L34.7228 38.3171H16.0985L10.3433 20.6043L25.4106 9.65723Z" fill="#BF921E"/>
</g>
</svg>
