<svg width="35" height="37" viewBox="0 0 35 37" fill="none" xmlns="http://www.w3.org/2000/svg">
<path fill-rule="evenodd" clip-rule="evenodd" d="M19.8905 7.56523C20.8963 7.88617 21.818 8.39527 22.6144 9.05113L28.8946 5.9398L24.6879 11.6073C24.9375 12.0861 25.1414 12.5926 25.2939 13.1208L34.6488 15.592L25.2695 17.7746C24.2524 21.165 21.1079 23.6355 17.3863 23.6355C13.7779 23.6355 10.712 21.313 9.60172 18.0813L0 15.592L9.50531 13.0307C9.63707 12.593 9.8043 12.1706 10.0036 11.767L5.50669 6.00167L12.1041 9.09604C12.8352 8.48339 13.6744 7.99545 14.5889 7.66493L17.2007 0L19.8905 7.56523ZM21.5318 15.4064C21.5318 17.7642 19.6204 19.6756 17.2625 19.6756C14.9047 19.6756 12.9933 17.7642 12.9933 15.4064C12.9933 13.0485 14.9047 11.1371 17.2625 11.1371C19.6204 11.1371 21.5318 13.0485 21.5318 15.4064Z" fill="white"/>
<path d="M27.7809 27.2241L23.9871 23.0619C22.2149 24.775 19.9843 25.8629 17.51 25.8629C14.9007 25.8629 12.6332 24.8156 10.8971 23.0165L6.92977 27.2241L11.6321 26.468C12.6459 27.1739 13.7716 27.7026 14.9732 28.0145L17.5719 37L19.8612 28.0608C21.0891 27.7668 22.2407 27.2472 23.2782 26.5435L27.7809 27.2241Z" fill="white"/>
</svg>
