<svg width="15" height="15" viewBox="0 0 15 15" fill="none" xmlns="http://www.w3.org/2000/svg">
<path fill-rule="evenodd" clip-rule="evenodd" d="M14 7.5C14 11.0899 11.0899 14 7.5 14C3.91015 14 1 11.0899 1 7.5C1 3.91015 3.91015 1 7.5 1C11.0899 1 14 3.91015 14 7.5ZM15 7.5C15 11.6421 11.6421 15 7.5 15C3.35786 15 0 11.6421 0 7.5C0 3.35786 3.35786 0 7.5 0C11.6421 0 15 3.35786 15 7.5ZM8.38527 11.0529C7.88445 11.0529 7.8905 10.6411 7.92642 10.3485L8.50659 5.62337H8.38417C7.7077 6.05687 6.95635 6.28445 6.26549 6.38199L6.23488 6.63125C6.61328 6.63125 6.74562 6.91302 6.68973 7.36819L6.3238 10.3485C6.28787 10.6411 6.18166 11.0529 5.69197 11.0529L5.66137 11.3022H8.35466L8.38527 11.0529ZM7.98157 3.2825C7.50301 3.2825 7.06692 3.66181 7.01103 4.11698C6.95381 4.58299 7.29676 4.96229 7.77532 4.96229C8.24275 4.96229 8.67885 4.58299 8.73607 4.11698C8.79196 3.66181 8.44901 3.2825 7.98157 3.2825Z" fill="#808080"/>
</svg>
