<?xml version="1.0" encoding="UTF-8"?>
<svg id="b" data-name="Layer 2" xmlns="http://www.w3.org/2000/svg" width="945.488" height="518.387" viewBox="0 0 945.488 518.387">
  <g id="c" data-name="Layer 7">
    <g>
      <g>
        <polygon points="190.291 343.326 256.747 343.326 256.747 518.327 305.747 518.327 305.747 343.326 372.203 343.326 372.203 294.326 190.291 294.326 190.291 343.326" fill="#e4e4e4"/>
        <polygon points="573.797 343.326 640.253 343.326 640.253 518.327 689.253 518.327 689.253 343.326 755.709 343.326 755.709 294.326 573.797 294.326 573.797 343.326" fill="#e4e4e4"/>
        <path d="m449.729,294.327h-22.154l10.819,28.657-77.268,195.343h49l16.69-42.196h91.546l15.929,42.196h49l-84.563-224h-49Zm-6.64,140.666l30.569-77.282,29.175,77.282h-59.744Z" fill="#e4e4e4"/>
        <path d="m925.715,406.327h.061c-1.365-1-2.817-1.985-4.387-2.951-15.259-9.386-32.835-13.055-55.949-20.374s-28.82-12.857-28.82-25.813,11.222-22.451,28.82-22.451c16.633,0,28.495,16.693,29.745,26.223l47.9-10.865c-2.798-14.439-10.477-27.916-22.883-37.907-14.606-11.763-34.672-17.922-54.762-17.922s-39.917,5.961-54.523,17.724c-15.923,12.823-23.732,30.372-23.732,51.768,0,9.185,2.703,18.219,7.075,26.25,3.754,6.895,8.895,14.079,15.583,18.395,14.3,9.229,31.245,13.353,47.362,18.172,3.35,1.002,6.695,2.02,10.028,3.076,23.114,7.319,28.82,12.857,28.82,25.813s-11.222,22.451-28.82,22.451c-16.076,0-27.694-15.592-29.584-25.242l-48.787,5.311c1.951,16.148,9.901,31.441,23.609,42.481,14.606,11.763,34.672,17.922,54.762,17.922s39.917-5.961,54.523-17.724c15.923-12.823,23.732-30.372,23.732-51.768,0-18.214-10.528-34.299-19.772-42.568Z" fill="#e4e4e4"/>
        <path d="m138.531,406.327h.061c-1.365-1-2.817-1.985-4.387-2.951-15.259-9.386-32.835-13.055-55.949-20.374s-28.82-12.857-28.82-25.813,11.222-22.451,28.82-22.451c16.633,0,28.495,16.693,29.745,26.223l47.9-10.865c-2.798-14.439-10.477-27.916-22.883-37.907-14.606-11.763-34.672-17.922-54.762-17.922s-39.917,5.961-54.523,17.724c-15.923,12.823-23.732,30.372-23.732,51.768,0,9.185,2.703,18.219,7.075,26.25,3.754,6.895,8.895,14.079,15.583,18.395,14.3,9.229,31.245,13.353,47.362,18.172,3.35,1.002,6.695,2.02,10.028,3.076,23.114,7.319,28.82,12.857,28.82,25.813s-11.222,22.451-28.82,22.451c-16.076,0-27.694-15.592-29.584-25.242l-48.787,5.311c1.951,16.148,9.901,31.441,23.609,42.481,14.606,11.763,34.672,17.922,54.762,17.922s39.917-5.961,54.523-17.724c15.923-12.823,23.732-30.372,23.732-51.768,0-18.214-10.528-34.299-19.772-42.568Z" fill="#e4e4e4"/>
      </g>
      <g>
        <path d="m225.314,224.108L140.751.108h-71.154l10.819,28.657L3.148,224.108h49l16.69-42.196h91.546l15.93,42.196h49Zm-140.204-83.334l30.569-77.282,29.175,77.282h-59.744Z" fill="#e4e4e4"/>
        <path d="m666.662,224.108L582.098.108h-71.154l10.819,28.657-77.268,195.343h49l16.69-42.196h91.546l15.929,42.196h49Zm-140.204-83.334l30.569-77.282,29.175,77.282h-59.744Z" fill="#e4e4e4"/>
        <polygon points="742.398 70.789 782.067 119.464 810.869 154.805 839.671 119.464 879.34 70.789 879.34 224.108 928.34 224.108 928.34 .108 879.339 .108 810.869 84.123 742.399 .108 693.398 .108 693.398 224.108 742.398 224.108 742.398 70.789" fill="#e4e4e4"/>
        <path d="m301.05,143.904h37.674s31.213,80.312,31.213,80.312h47.266l.557-.216-35.057-90.204c20.758-12.551,34.671-35.545,34.671-61.844,0-39.738-31.749-71.952-70.914-71.952h-94.41v224h49v-80.095Zm0-98.637h47.16c13.336,0,24.12,14.903,24.12,28.434s-10.811,24.775-24.147,24.775h-47.133v-53.209Z" fill="#e4e4e4"/>
      </g>
    </g>
  </g>
</svg>