<svg xmlns="http://www.w3.org/2000/svg" width="59.295" height="59.295" viewBox="0 0 59.295 59.295">
  <g>
    <circle cx="29.648" cy="29.648" r="14.779"/>
    <rect x="27.179" width="4.938" height="11.242" rx="2.469"/>
    <rect x="51.205" y="24.027" width="4.938" height="11.242" rx="2.469" transform="translate(83.322 -24.027) rotate(90)"/>
    <rect x="27.179" y="48.053" width="4.938" height="11.242" rx="2.469" transform="translate(59.295 107.349) rotate(180)"/>
    <rect x="3.152" y="24.027" width="4.938" height="11.242" rx="2.469" transform="translate(-24.027 35.269) rotate(-90)"/>
    <rect x="10.189" y="7.037" width="4.938" height="11.242" rx="2.469" transform="translate(-5.243 12.658) rotate(-45)"/>
    <rect x="44.168" y="7.037" width="4.938" height="11.242" rx="2.469" transform="translate(22.61 -29.27) rotate(45)"/>
    <rect x="44.168" y="41.016" width="4.938" height="11.242" rx="2.469" transform="translate(112.592 46.637) rotate(135)"/>
    <rect x="10.189" y="41.016" width="4.938" height="11.242" rx="2.469" transform="translate(-11.368 88.565) rotate(-135)"/>
  </g>
</svg>
